<svg
  xmlns="http://www.w3.org/2000/svg" data-name="Layer 1" fill="#fff" viewBox="0 0 50 48" x="0px" y="0px">
  <title>Artboard 42</title>
  <path d="M31.32,4A11,11,0,0,0,15,17.56V29.39l20-8.88v-3A11,11,0,0,0,31.32,4ZM25,20a7,7,0,1,1,7-7A7,7,0,0,1,25,20Z" fill="#fff" />
  <polygon points="15 37.4 35 28.5 35 21.6 15 30.5 15 37.4"/>
  <path d="M32.8,43.18A8.53,8.53,0,0,0,35,37.47V29.61L23.49,34.72Z"/>
  <path d="M15.06,38.47A8.55,8.55,0,0,0,23.53,46h2.94a8.5,8.5,0,0,0,5.61-2.11l-9.59-8.72Z"/>
  <path d="M25.57,15a.5.5,0,0,0,0-1,.56.56,0,0,1-.57-.57V12.5a.5.5,0,0,0-1,0v.93A1.57,1.57,0,0,0,25.57,15Z"/>
  <path d="M26.11,16.19a6.47,6.47,0,0,1-.82.86,1.47,1.47,0,0,1-.59,0,4.49,4.49,0,0,1-.81-.85.49.49,0,0,0-.7-.08.5.5,0,0,0-.08.7A4.26,4.26,0,0,0,24.31,18a1.81,1.81,0,0,0,.71.12,1.65,1.65,0,0,0,.7-.13,5.29,5.29,0,0,0,1.17-1.14.5.5,0,0,0-.78-.62Z"/>
  <circle cx="22" cy="11" r="1"/>
  <circle cx="28" cy="11" r="1"/>
</svg>