<svg xmlns="http://www.w3.org/2000/svg" width="24" height="24" fill="#fff" viewBox="0 0 14 12">
  <g>
    <path d="M11.3886 11.2557C12.2937 11.2557 13.03 10.5322 13.03 9.64282C13.0293 8.81958 12.4017 8.1304 11.57 8.03981L11.5101 8.03336L9.85608 0.673127C9.80628 0.451282 9.60891 0.296387 9.37637 0.296387H7.73111C7.46021 0.296387 7.23979 0.512777 7.23979 0.77876C7.23979 1.04474 7.46021 1.26097 7.73111 1.26097H8.98163L9.92659 5.46578L9.9143 5.4914L8.15143 9.1416L4.66656 9.15185L4.65866 9.07763C4.5121 7.70176 3.33864 6.66411 1.92929 6.66411C1.73764 6.66411 1.58183 6.81718 1.58183 7.00531C1.58183 7.19343 1.7378 7.34667 1.92929 7.34667C2.93515 7.34667 3.80658 8.08296 3.95616 9.05944L3.97063 9.154L3.2079 9.15615L3.18788 9.1011C2.95484 8.46069 2.33345 8.03023 1.64173 8.03023C1.64156 8.03023 1.64122 8.03023 1.64089 8.03023C1.20341 8.03023 0.791839 8.19801 0.481564 8.50251C0.170954 8.80751 0 9.21219 0 9.64232C0 10.5317 0.73648 11.2552 1.64173 11.2552C2.33715 11.2552 2.95972 10.8216 3.19108 10.1763L3.21077 10.1212L8.46456 10.1049C8.65251 10.1044 8.82615 9.99625 8.90709 9.82929L10.2724 7.00101L10.5539 8.25339L10.5046 8.28447C10.0301 8.58368 9.74671 9.09135 9.74671 9.64265C9.74654 10.5322 10.4832 11.2557 11.3886 11.2557ZM2.34725 10.2611C2.16704 10.4591 1.90994 10.5727 1.64156 10.5727C1.11944 10.5727 0.694752 10.1554 0.694752 9.64249C0.694752 9.1297 1.11944 8.71262 1.64156 8.71262C1.90909 8.71262 2.16552 8.82503 2.34506 9.02109L2.47092 9.1583L1.92794 9.16012C1.79653 9.16061 1.67302 9.2112 1.58065 9.30245C1.4881 9.3937 1.43746 9.5147 1.43796 9.64348C1.43897 9.90847 1.65939 10.1239 1.92929 10.1239L2.47311 10.1229L2.34725 10.2611ZM10.6035 9.12275L10.713 8.96323L10.8194 9.43668C10.8764 9.6901 11.1431 9.85888 11.4051 9.80416C11.6693 9.7468 11.837 9.48858 11.779 9.22855L11.6684 8.7361L11.8289 8.81941C12.1411 8.98141 12.3351 9.29683 12.3351 9.64232C12.3347 10.1554 11.9101 10.5728 11.3883 10.5728C10.8662 10.5728 10.4415 10.1556 10.4415 9.64265C10.4415 9.45651 10.4975 9.27682 10.6035 9.12275Z" />
    <path d="M4.35196 5.50848C5.52389 5.50848 6.21866 4.93206 6.21866 3.96244C6.21866 3.22951 5.73767 2.70271 4.98946 2.60727V2.57673C5.52008 2.4813 5.93999 1.94687 5.93999 1.37426C5.93999 0.549703 5.30249 0 4.35959 0H2.27148V5.50848H4.35196ZM2.95861 0.606964H4.20308C4.87112 0.606964 5.24523 0.908537 5.24523 1.45442C5.24523 2.04993 4.80241 2.37441 3.98931 2.37441H2.95861V0.606964ZM2.95861 4.90152V2.96611H4.18399C5.06199 2.96611 5.51244 3.29058 5.51244 3.92809C5.51244 4.56559 5.07726 4.90152 4.24889 4.90152H2.95861Z" />
  </g>
</svg>