<svg width="81" height="81" viewBox="0 0 81 81" fill="none" xmlns="http://www.w3.org/2000/svg">
<path d="M57.2372 0.512376C56.9091 0.184302 56.464 0 56 0C55.5359 0 55.0909 0.184302 54.7627 0.512376L47.985 7.29013C45.6264 5.95275 42.9613 5.24975 40.25 5.24975C37.5386 5.24975 34.8736 5.95275 32.515 7.29013L25.7372 0.512376C25.4072 0.1936 24.9651 0.0172096 24.5063 0.0211969C24.0474 0.0251841 23.6085 0.20923 23.284 0.533694C22.9596 0.858158 22.7755 1.29708 22.7716 1.75592C22.7676 2.21477 22.944 2.65682 23.2627 2.98688L29.6502 9.37438C27.2994 11.5134 25.6507 14.3136 24.9209 17.407C24.191 20.5003 24.4141 23.7422 25.5609 26.7064C26.7076 29.6706 28.7243 32.2186 31.346 34.0154C33.9677 35.8122 37.0717 36.7737 40.25 36.7737C43.4283 36.7737 46.5323 35.8122 49.1539 34.0154C51.7756 32.2186 53.7923 29.6706 54.9391 26.7064C56.0858 23.7422 56.3089 20.5003 55.5791 17.407C54.8492 14.3136 53.2005 11.5134 50.8497 9.37438L57.2372 2.98688C57.5653 2.6587 57.7496 2.21366 57.7496 1.74963C57.7496 1.28559 57.5653 0.84055 57.2372 0.512376Z" fill="#444444"/>
<path d="M17.5 47.2496H1.75C1.28587 47.2496 0.840752 47.0653 0.512563 46.7371C0.184374 46.4089 0 45.9638 0 45.4996C0 45.0355 0.184374 44.5904 0.512563 44.2622C0.840752 43.934 1.28587 43.7496 1.75 43.7496H17.5C17.9641 43.7496 18.4092 43.934 18.7374 44.2622C19.0656 44.5904 19.25 45.0355 19.25 45.4996C19.25 45.9638 19.0656 46.4089 18.7374 46.7371C18.4092 47.0653 17.9641 47.2496 17.5 47.2496Z" fill="#444444"/>
<path d="M6.99997 78.7496C6.85662 78.7493 6.71383 78.7317 6.57472 78.6971C6.12458 78.5847 5.73751 78.2981 5.49861 77.9004C5.25971 77.5027 5.18853 77.0263 5.30072 76.5761L8.08672 65.4496C8.6475 63.2199 9.92061 61.234 11.7127 59.7936L18.1562 54.6399C18.5187 54.3498 18.9816 54.2156 19.443 54.2668C19.9044 54.318 20.3266 54.5504 20.6167 54.9129C20.9068 55.2754 21.041 55.7382 20.9898 56.1997C20.9386 56.6611 20.7062 57.0833 20.3437 57.3734L13.9002 62.5219C12.7053 63.4809 11.8561 64.8039 11.4817 66.2896L8.69747 77.4231C8.603 77.8019 8.38461 78.1382 8.07702 78.3785C7.76944 78.6189 7.39033 78.7495 6.99997 78.7496Z" fill="#444444"/>
<path d="M22.75 36.7496C22.3858 36.7495 22.0308 36.635 21.735 36.4224L11.7985 29.3279C9.992 28.0399 8.64332 26.2094 7.94852 24.1024L5.34103 16.3026C5.2684 16.0843 5.2395 15.8538 5.25595 15.6243C5.27241 15.3948 5.3339 15.1708 5.43693 14.9651C5.53996 14.7594 5.6825 14.5759 5.85641 14.4253C6.03032 14.2747 6.2322 14.1597 6.45052 14.0871C6.66885 14.0145 6.89934 13.9856 7.12883 14.0021C7.35833 14.0185 7.58233 14.08 7.78806 14.183C7.99379 14.2861 8.17721 14.4286 8.32785 14.6025C8.47849 14.7764 8.5934 14.9783 8.66603 15.1966L11.2665 22.9964C11.7289 24.3994 12.6248 25.6194 13.825 26.4806L23.7598 33.5769C24.0604 33.7922 24.2851 34.0972 24.4017 34.4482C24.5182 34.7991 24.5206 35.178 24.4084 35.5304C24.2963 35.8827 24.0754 36.1906 23.7774 36.4096C23.4795 36.6286 23.1198 36.7477 22.75 36.7496Z" fill="#444444"/>
<path d="M78.75 47.2496H63C62.5359 47.2496 62.0908 47.0653 61.7626 46.7371C61.4344 46.4089 61.25 45.9638 61.25 45.4996C61.25 45.0355 61.4344 44.5904 61.7626 44.2622C62.0908 43.934 62.5359 43.7496 63 43.7496H78.75C79.2141 43.7496 79.6593 43.934 79.9874 44.2622C80.3156 44.5904 80.5 45.0355 80.5 45.4996C80.5 45.9638 80.3156 46.4089 79.9874 46.7371C79.6593 47.0653 79.2141 47.2496 78.75 47.2496Z" fill="#444444"/>
<path d="M73.5 78.7496C73.11 78.7491 72.7313 78.6183 72.424 78.378C72.1168 78.1377 71.8987 77.8016 71.8043 77.4231L69.0183 66.2896C68.6439 64.8039 67.7947 63.4809 66.5998 62.5219L60.1563 57.3664C59.9768 57.2227 59.8274 57.0452 59.7165 56.8438C59.6056 56.6424 59.5355 56.4212 59.5102 56.1927C59.4848 55.9642 59.5047 55.733 59.5688 55.5122C59.6328 55.2914 59.7396 55.0854 59.8833 54.9059C60.0269 54.7264 60.2045 54.577 60.4059 54.4661C60.6073 54.3552 60.8285 54.2851 61.057 54.2598C61.2855 54.2344 61.5167 54.2543 61.7375 54.3184C61.9583 54.3824 62.1643 54.4893 62.3438 54.6329L68.7873 59.7866C70.5801 61.2293 71.8532 63.2176 72.4133 65.4496L75.1975 76.5831C75.3097 77.0333 75.2385 77.5096 74.9996 77.9074C74.7607 78.3051 74.3737 78.5917 73.9235 78.7041C73.7847 78.7362 73.6425 78.7515 73.5 78.7496Z" fill="#444444"/>
<path d="M57.75 36.7496C57.3795 36.7495 57.0185 36.6318 56.7192 36.4134C56.4198 36.1951 56.1975 35.8873 56.0842 35.5345C55.971 35.1817 55.9726 34.8021 56.089 34.4502C56.2053 34.0984 56.4303 33.7926 56.7315 33.5769L66.675 26.4806C67.8805 25.6216 68.7814 24.4013 69.2475 22.9964L71.848 15.1966C71.9207 14.9783 72.0356 14.7764 72.1862 14.6025C72.3368 14.4286 72.5203 14.2861 72.726 14.183C72.9317 14.08 73.1557 14.0185 73.3852 14.0021C73.6147 13.9856 73.8452 14.0145 74.0635 14.0871C74.2819 14.1597 74.4837 14.2747 74.6576 14.4253C74.8316 14.5759 74.9741 14.7594 75.0771 14.9651C75.1801 15.1708 75.2416 15.3948 75.2581 15.6243C75.2746 15.8538 75.2457 16.0843 75.173 16.3026L72.5743 24.1024C71.8795 26.2094 70.5308 28.0399 68.7243 29.3279L58.7895 36.4224C58.487 36.64 58.1226 36.7547 57.75 36.7496Z" fill="#444444"/>
<path d="M40.25 80.4996C33.2905 80.4918 26.6183 77.7236 21.6971 72.8025C16.776 67.8814 14.0079 61.2091 14 54.2496V40.2496C14 33.2877 16.7656 26.6109 21.6884 21.6881C26.6113 16.7652 33.2881 13.9996 40.25 13.9996C47.2119 13.9996 53.8887 16.7652 58.8116 21.6881C63.7344 26.6109 66.5 33.2877 66.5 40.2496V54.2496C66.4921 61.2091 63.724 67.8814 58.8029 72.8025C53.8817 77.7236 47.2095 80.4918 40.25 80.4996Z" fill="#A4DAE0"/>
<path d="M38.5 80.4104C39.081 80.4489 39.6585 80.4996 40.25 80.4996C40.8415 80.4996 41.419 80.4489 42 80.4104V12.2496H38.5V80.4104Z" fill="#444444"/>
</svg>
