<svg xmlns="http://www.w3.org/2000/svg" width="24" height="24" fill="#fff" viewBox="0 -7 90 112.5">
    <path d="M75.047,14.955c-16.595-16.595-43.499-16.595-60.094,0C-1.641,31.549-1.64,58.452,14.955,75.047  c16.594,16.595,43.498,16.595,60.091,0.001C91.641,58.452,91.642,31.549,75.047,14.955z M69.43,20.572  c11.591,11.591,13.214,29.369,4.887,42.704l-47.59-47.59C40.061,7.357,57.837,8.979,69.43,20.572z M20.573,69.429  C8.98,57.837,7.358,40.061,15.684,26.727l47.589,47.589C49.94,82.643,32.164,81.021,20.573,69.429z" />
</svg>