<svg xmlns="http://www.w3.org/2000/svg" width="24" height="24" fill="#fff" viewBox="10 2 44 60"><g>
      <path d="M39.946,15.47c-0.38-0.115-0.801,0.009-1.058,0.318c-0.256,0.309-0.303,0.741-0.119,1.098    c1.405,2.721,2.117,5.644,2.117,8.687c0,10.476-8.523,19-19,19c-1.853,0-3.698-0.272-5.485-0.812    c-0.383-0.114-0.8,0.011-1.057,0.318c-0.256,0.309-0.304,0.741-0.12,1.098C18.85,52.206,26,56.572,33.887,56.572    c11.579,0,21-9.421,21-21C54.887,26.385,48.743,18.118,39.946,15.47z" />
      <path d="M18.113,26.573h7.865l-8.633,10.359c-0.249,0.299-0.302,0.714-0.138,1.064c0.165,0.352,0.518,0.576,0.906,0.576h10    c0.552,0,1-0.447,1-1s-0.448-1-1-1h-7.865l8.633-10.359c0.249-0.298,0.302-0.713,0.138-1.064    c-0.165-0.351-0.518-0.576-0.906-0.576h-10c-0.552,0-1,0.448-1,1S17.561,26.573,18.113,26.573z" />
      <path d="M17.113,20.427c0-0.552-0.448-1-1-1h-4l4.8-6.4c0.228-0.303,0.264-0.708,0.095-1.047s-0.516-0.553-0.895-0.553h-6    c-0.552,0-1,0.448-1,1s0.448,1,1,1h4l-4.8,6.4c-0.228,0.303-0.264,0.708-0.095,1.047s0.516,0.553,0.895,0.553h6    C16.666,21.427,17.113,20.979,17.113,20.427z" />
      <path d="M22.113,9.427h2.131l-2.963,4.445c-0.205,0.307-0.224,0.701-0.05,1.026c0.174,0.325,0.513,0.528,0.882,0.528h4    c0.552,0,1-0.448,1-1s-0.448-1-1-1h-2.131l2.963-4.445c0.205-0.307,0.224-0.701,0.05-1.026c-0.174-0.325-0.513-0.528-0.882-0.528    h-4c-0.552,0-1,0.448-1,1S21.561,9.427,22.113,9.427z" />
    </g></svg>