<svg xmlns="http://www.w3.org/2000/svg" width="24" height="24" fill="#fff" viewBox="0 0 14 11">
    <g>
        <path d="M11.3893 10.96C12.2944 10.96 13.0308 10.2364 13.0308 9.34698C13.0301 8.52369 12.4024 7.83448 11.5707 7.74388L11.5108 7.73743L9.85666 0.376763C9.80686 0.154904 9.60947 0 9.37692 0H7.73156C7.46065 0 7.24021 0.216403 7.24021 0.482402C7.24021 0.7484 7.46065 0.964638 7.73156 0.964638H8.98216L9.92717 5.1697L9.91489 5.19532L8.15191 8.84573L4.66684 8.85598L4.65893 8.78176C4.51236 7.4058 3.33884 6.36809 1.9294 6.36809C1.73774 6.36809 1.58192 6.52118 1.58192 6.70931C1.58192 6.89745 1.73791 7.0507 1.9294 7.0507C2.93533 7.0507 3.8068 7.78703 3.9564 8.76357L3.97087 8.85813L3.20809 8.86028L3.18807 8.80523C2.95501 8.16478 2.33359 7.73429 1.64182 7.73429C1.64166 7.73429 1.64132 7.73429 1.64098 7.73429C1.20348 7.73429 0.791885 7.90209 0.481593 8.20661C0.170964 8.51162 0 8.91632 0 9.34649C0 10.2359 0.736524 10.9595 1.64182 10.9595C2.33729 10.9595 2.95989 10.5259 3.19127 9.88047L3.21095 9.82541L8.46506 9.80905C8.65302 9.80855 8.82667 9.70043 8.90761 9.53346L10.273 6.70501L10.5545 7.95747L10.5052 7.98855C10.0307 8.28778 9.74729 8.79548 9.74729 9.34682C9.74712 10.2364 10.4838 10.96 11.3893 10.96ZM2.34739 9.96527C2.16717 10.1633 1.91005 10.2769 1.64166 10.2769C1.11951 10.2769 0.694793 9.85964 0.694793 9.34665C0.694793 8.83383 1.11951 8.41673 1.64166 8.41673C1.90921 8.41673 2.16565 8.52915 2.3452 8.72521L2.47107 8.86243L1.92805 8.86425C1.79663 8.86475 1.67312 8.91533 1.58074 9.00659C1.48819 9.09785 1.43754 9.21886 1.43805 9.34764C1.43906 9.61265 1.65949 9.82806 1.9294 9.82806L2.47325 9.82707L2.34739 9.96527ZM10.6041 8.82689L10.7137 8.66735L10.82 9.14083C10.8771 9.39426 11.1438 9.56305 11.4058 9.50833C11.67 9.45097 11.8377 9.19274 11.7797 8.93269L11.6691 8.44021L11.8296 8.52353C12.1418 8.68554 12.3358 9.00097 12.3358 9.34649C12.3355 9.85964 11.9108 10.2771 11.3889 10.2771C10.8668 10.2771 10.4421 9.8598 10.4421 9.34682C10.4421 9.16067 10.4981 8.98096 10.6041 8.82689Z" />
        <path d="M3.47529 0.710769C3.94653 0.710769 4.3929 0.864769 4.76179 1.14505L3.90792 1.94893L6.07979 2.18182L5.97767 0L5.11172 0.815489C4.64972 0.441151 4.07826 0.236923 3.47529 0.236923C2.03836 0.236923 0.869141 1.40614 0.869141 2.84308H1.34299C1.34299 1.66723 2.29944 0.710769 3.47529 0.710769Z" />
        <path d="M3.47461 4.97508C3.00337 4.97508 2.55701 4.82108 2.18812 4.5408L3.04199 3.73692L0.870117 3.50403L0.972231 5.68585L1.83818 4.87036C2.30018 5.2447 2.87164 5.44893 3.47461 5.44893C4.91155 5.44893 6.08077 4.27971 6.08077 2.84277H5.60692C5.60692 4.01862 4.65046 4.97508 3.47461 4.97508Z" />
    </g>
</svg>