<svg width="14" height="14" viewBox="0 0 14 14" fill="none" xmlns="http://www.w3.org/2000/svg">
<path d="M3.0625 13.125C4.27062 13.125 5.25 12.1456 5.25 10.9375C5.25 9.72938 4.27062 8.75 3.0625 8.75C1.85438 8.75 0.875 9.72938 0.875 10.9375C0.875 12.1456 1.85438 13.125 3.0625 13.125Z" fill="#fff"/>
<path d="M6.99999 0.874976C5.36111 0.874976 3.80624 1.53823 2.67049 2.67048L0.787488 0.787476L0.174988 6.38748L5.77499 5.77498L3.90686 3.90685C4.71886 3.09923 5.82924 2.62498 6.99999 2.62498C9.41236 2.62498 11.375 4.5876 11.375 6.99998C11.375 9.41235 9.41236 11.375 6.99999 11.375V13.125C10.3766 13.125 13.125 10.3775 13.125 6.99998C13.125 3.62248 10.3766 0.874976 6.99999 0.874976Z" fill="#fff"/>
</svg>
