<svg xmlns="http://www.w3.org/2000/svg" width="24" height="24" fill="#fff" viewBox="17 5 65 90"><path d="M78.502,84.047c5.379,0,9.755-4.377,9.755-9.757c-0.004-4.98-3.734-9.149-8.677-9.697l-0.356-0.039l-9.83-44.524  c-0.296-1.342-1.469-2.279-2.851-2.279h-9.778c-1.61,0-2.92,1.309-2.92,2.918s1.31,2.917,2.92,2.917h7.432l5.616,25.436  l-0.073,0.155L59.263,71.258l-20.711,0.062l-0.047-0.449c-0.871-8.323-7.845-14.6-16.221-14.6c-1.139,0-2.065,0.926-2.065,2.064  s0.927,2.065,2.065,2.065c5.978,0,11.157,4.454,12.046,10.361l0.086,0.572l-4.533,0.013l-0.119-0.333  c-1.385-3.874-5.078-6.478-9.189-6.478c-0.001,0-0.003,0-0.005,0c-2.6,0-5.046,1.015-6.89,2.857  c-1.846,1.845-2.862,4.293-2.862,6.895c0,5.38,4.377,9.757,9.757,9.757c4.133,0,7.833-2.623,9.208-6.527l0.117-0.333l31.224-0.099  c1.117-0.003,2.149-0.657,2.63-1.667l8.114-17.109l1.673,7.576l-0.293,0.188c-2.82,1.81-4.504,4.881-4.504,8.216  C68.743,79.67,73.121,84.047,78.502,84.047z M24.768,78.03c-1.071,1.198-2.599,1.885-4.194,1.885c-3.103,0-5.627-2.524-5.627-5.627  c0-3.102,2.524-5.625,5.627-5.625c1.59,0,3.114,0.68,4.181,1.866l0.748,0.83l-3.227,0.011c-0.781,0.003-1.515,0.309-2.064,0.861  c-0.55,0.552-0.851,1.284-0.848,2.063c0.006,1.603,1.316,2.906,2.92,2.906l3.232-0.006L24.768,78.03z M73.836,71.144l0.651-0.965  l0.632,2.864c0.339,1.533,1.924,2.554,3.481,2.223c1.57-0.347,2.567-1.909,2.222-3.482l-0.657-2.979l0.954,0.504  c1.855,0.98,3.008,2.888,3.008,4.978c-0.002,3.104-2.526,5.629-5.627,5.629c-3.103,0-5.627-2.524-5.627-5.627  C72.873,73.163,73.206,72.076,73.836,71.144z" /></svg>