<svg width="74" height="86" viewBox="0 0 74 86" fill="none" xmlns="http://www.w3.org/2000/svg">
<path d="M35.1667 85.1667H2.16667C1.68044 85.1667 1.21412 84.9735 0.870303 84.6297C0.526487 84.2859 0.333332 83.8196 0.333332 83.3333V66.8333C0.333436 66.3471 0.526659 65.8809 0.870499 65.5372L17.3705 49.0372C17.7143 48.6935 18.1805 48.5004 18.6667 48.5004C19.1528 48.5004 19.619 48.6935 19.9628 49.0372L25.4628 54.5372C25.8065 54.881 25.9996 55.3472 25.9996 55.8333C25.9996 56.3195 25.8065 56.7857 25.4628 57.1295L11.3333 71.259V81.5H35.1667C35.6529 81.5 36.1192 81.6932 36.463 82.037C36.8068 82.3808 37 82.8471 37 83.3333C37 83.8196 36.8068 84.2859 36.463 84.6297C36.1192 84.9735 35.6529 85.1667 35.1667 85.1667Z" fill="#B3B3B3"/>
<path d="M37.9167 41.1667C40.448 41.1667 42.5 39.1146 42.5 36.5833C42.5 34.052 40.448 32 37.9167 32C35.3854 32 33.3333 34.052 33.3333 36.5833C33.3333 39.1146 35.3854 41.1667 37.9167 41.1667Z" fill="#444444"/>
<path d="M38.8333 10C38.3471 10 37.8808 10.1932 37.537 10.537C37.1932 10.8808 37 11.3471 37 11.8333C37 12.3196 37.1932 12.7859 37.537 13.1297C37.8808 13.4735 38.3471 13.6667 38.8333 13.6667C44.6662 13.673 50.2583 15.9929 54.3827 20.1173C58.5071 24.2417 60.827 29.8338 60.8333 35.6667C60.8333 36.1529 61.0265 36.6192 61.3703 36.963C61.7141 37.3068 62.1804 37.5 62.6667 37.5C63.1529 37.5 63.6192 37.3068 63.963 36.963C64.3068 36.6192 64.5 36.1529 64.5 35.6667C64.4927 28.8617 61.7862 22.3375 56.9744 17.5256C52.1625 12.7138 45.6383 10.0073 38.8333 10Z" fill="#A4DAE0"/>
<path d="M38.8333 19.1667C38.3471 19.1667 37.8808 19.3598 37.537 19.7036C37.1932 20.0475 37 20.5138 37 21C37 21.4862 37.1932 21.9525 37.537 22.2964C37.8808 22.6402 38.3471 22.8333 38.8333 22.8333C42.2356 22.8377 45.4973 24.1912 47.903 26.5969C50.3088 29.0027 51.6623 32.2644 51.6667 35.6667C51.6667 36.1529 51.8598 36.6192 52.2036 36.963C52.5475 37.3068 53.0138 37.5 53.5 37.5C53.9862 37.5 54.4525 37.3068 54.7964 36.963C55.1402 36.6192 55.3333 36.1529 55.3333 35.6667C55.3285 31.2921 53.5885 27.0981 50.4952 24.0048C47.4019 20.9115 43.2079 19.1715 38.8333 19.1667Z" fill="#A4DAE0"/>
<path d="M38.8333 0.833328C38.3471 0.833328 37.8808 1.02648 37.537 1.3703C37.1932 1.71412 37 2.18043 37 2.66666C37 3.15289 37.1932 3.61921 37.537 3.96302C37.8808 4.30684 38.3471 4.49999 38.8333 4.49999C47.0964 4.50921 55.0184 7.7958 60.8613 13.6387C66.7042 19.4816 69.9908 27.4036 70 35.6667C70 36.1529 70.1932 36.6192 70.537 36.963C70.8808 37.3068 71.3471 37.5 71.8333 37.5C72.3196 37.5 72.7859 37.3068 73.1297 36.963C73.4735 36.6192 73.6667 36.1529 73.6667 35.6667C73.6565 26.4314 69.9833 17.5773 63.453 11.047C56.9227 4.51672 48.0686 0.843519 38.8333 0.833328Z" fill="#A4DAE0"/>
<path d="M19.9628 49.0372C19.619 48.6935 19.1528 48.5004 18.6667 48.5004C18.1805 48.5004 17.7143 48.6935 17.3705 49.0372L7.90683 58.5008C10.1898 61.5831 12.9169 64.3102 15.9992 66.5932L25.4628 57.1295C25.8065 56.7857 25.9996 56.3195 25.9996 55.8333C25.9996 55.3472 25.8065 54.881 25.4628 54.5372L19.9628 49.0372Z" fill="#9E9E9E"/>
<path d="M38.8333 70.5C32.4107 70.5082 26.1112 68.7382 20.6327 65.3863C15.1541 62.0344 10.7104 57.2313 7.79376 51.5091C4.87715 45.7869 3.60149 39.369 4.10813 32.9664C4.61476 26.5638 6.8839 20.4264 10.6642 15.2342C10.82 15.0201 11.0203 14.8424 11.2514 14.7132C11.4825 14.584 11.7388 14.5063 12.0027 14.4856C12.2666 14.4649 12.5319 14.5015 12.7803 14.5931C13.0287 14.6847 13.2543 14.8289 13.4417 15.016L59.484 61.0583C59.6711 61.2457 59.8153 61.4713 59.9069 61.7197C59.9985 61.9681 60.0351 62.2334 60.0144 62.4973C59.9937 62.7612 59.916 63.0175 59.7868 63.2486C59.6576 63.4796 59.4799 63.68 59.2658 63.8358C53.3365 68.1726 46.1794 70.507 38.8333 70.5Z" fill="#E6E6E6"/>
</svg>
