<svg width="11" height="12" viewBox="-1 -1 13 14" fill="#fff"
  xmlns="http://www.w3.org/2000/svg">
  <path d="M4.63519 11.31H4.76587C4.94621 11.31 5.09257 11.1636 5.09257 10.9833V7.17267L7.46441 10.9571C7.5598 11.11 7.76235 11.1558 7.91525 11.0604L8.02633 10.9911C8.17922 10.8957 8.22496 10.6932 8.12956 10.5403L5.51597 6.37159C5.62705 6.21217 5.69107 6.01745 5.69107 5.80836C5.69107 5.59797 5.62442 5.40195 5.51335 5.24121L3.71912 5.68291C3.71389 5.72471 3.71126 5.76654 3.71126 5.80965C3.71126 6.01874 3.7766 6.21216 3.88637 6.37288L1.27278 10.5416C1.17739 10.6945 1.22312 10.8957 1.37602 10.9924L1.4871 11.0617C1.63999 11.1571 1.84124 11.1113 1.93794 10.9584L4.30849 7.17267V10.9833C4.30849 11.1636 4.45487 11.31 4.63519 11.31Z" />
  <path d="M0.734566 5.50112C0.748941 5.50112 2.2609 5.1326 2.2609 5.1326C2.08449 4.84119 1.93551 4.46875 1.83881 4.07148C1.7408 3.6716 1.70159 3.27564 1.72381 2.93457L0.23929 3.29786C0.00145346 3.35667 -0.0717271 3.89507 0.0772476 4.50273C0.215781 5.0738 0.501969 5.50112 0.734566 5.50112Z" />
  <path d="M4.47235 1.75537L2.45204 2.24934C2.37756 2.26764 2.31352 2.3186 2.26256 2.39701C2.22335 2.45712 2.19068 2.53291 2.16586 2.62178C2.14756 2.68581 2.13449 2.75638 2.12535 2.83348C2.08614 3.14449 2.11358 3.54829 2.21943 3.97562C2.32398 4.40294 2.48602 4.77408 2.66374 5.03151C2.70818 5.09554 2.75261 5.15173 2.79834 5.20008C2.86107 5.26804 2.9251 5.32031 2.98783 5.35559C3.04664 5.38826 3.10544 5.40655 3.16163 5.40655C3.18254 5.40655 3.20345 5.40393 3.22305 5.3987L5.15188 4.92696L5.25251 4.90215C4.95717 4.50096 4.72717 3.94035 4.58996 3.38104C4.44883 2.80474 4.4057 2.23498 4.46714 1.7776C4.46974 1.77105 4.47106 1.76321 4.47235 1.75537Z" />
  <path d="M10.9903 3.58193L10.1749 0.249598C10.1383 0.100623 10.005 0 9.85731 0C9.83117 0 9.80504 0.00261359 9.7789 0.00914757L5.26523 1.1147C5.21165 1.12776 5.1633 1.1539 5.11887 1.1931C5.05485 1.2493 4.99995 1.33162 4.95684 1.43486C4.92938 1.5002 4.90717 1.57338 4.88888 1.6531C4.79609 2.06082 4.81701 2.6541 4.97251 3.2892C5.13194 3.93868 5.39591 4.48492 5.67296 4.79987C5.72915 4.8626 5.78535 4.91749 5.84153 4.96061C5.85591 4.97236 5.87289 4.98282 5.88988 4.99196C6.01534 5.06383 6.16562 5.08344 6.30674 5.04816L10.7512 3.97527C10.9263 3.93345 11.0334 3.75704 10.9903 3.58193Z" />
</svg>
