<svg xmlns="http://www.w3.org/2000/svg" width="24" height="24" fill="#fff" viewBox="0 0 902 357"><g>
      <path
        d="M215.3,214.1c0-17.17-65.12-22.9-65.12-69.41c0-41.14,39.71-60.82,82.29-60.82c21.47,0,40.85,4.64,50.03,8.79l-7.39,43.57
		c-12.34-4.83-30.47-9.43-46.21-9.43c-10.38,0-18.96,3.22-18.96,10.73c0,15.74,66.55,22.54,66.55,65.12
		c0,46.51-39.71,65.47-84.79,65.47c-21.83,0-46.72-5-58.89-10.98l7.37-44.49c12.16,5.01,38.64,12.54,55.81,12.54
		C210.29,225.19,215.3,220.18,215.3,214.1z"
      />
      <path
        d="M370.22,152.56c29.34-11.09,54.14-31.84,60.03-65.83h61.78c-9.8,42.85-35.07,65.16-68.11,84.79l44.01,93.02h-69.41
		l-25.4-70.48l-10.41,3.58l-11.45,66.91h-59.39L336.23,3.01h59.75L370.22,152.56z"
      />
      <path
        d="M512.64,86.73h59.75l-30.41,177.82h-59.75L512.64,86.73z M556.64-0.21c15.38,0,25.76,11.45,25.76,26.48
		c0,18.25-15.74,37.21-36.14,37.21c-15.74,0-26.12-11.45-26.12-26.47C520.15,18.75,536.25-0.21,556.64-0.21z"
      />
      <path
        d="M656.1,120.72c11.81-20.39,32.92-36.85,54.38-36.85c39,0,56.17,32.2,56.17,69.41c0,57.24-35.78,114.85-95.53,114.85
		c-12.52,0-25.4-3.94-32.92-12.52h-0.71l-14.67,87.3h-59.39l31.13-185.33c3.58-23.61,7.51-47.23,10.73-70.84h54.02l-3.94,33.99
		H656.1z M649.66,185.84c-1.79,10.02-3.22,19.68-4.65,29.69c5.37,5.01,12.16,8.23,21.47,8.23c22.54,0,38.28-33.99,38.28-67.98
		c0-13.95-5.37-24.69-17.89-24.69C671.48,131.1,655.38,147.19,649.66,185.84z"
      />
      <polygon points="71.12,7.8 130.51,7.8 74.13,348.21 14.74,348.21 	" />
      <polygon points="835.87,7.8 895.26,7.8 838.88,348.21 779.49,348.21 	" />
    </g></svg>